<?xml version="1.0" standalone="no"?>
<!DOCTYPE svg PUBLIC "-//W3C//DTD SVG 20010904//EN"
 "http://www.w3.org/TR/2001/REC-SVG-20010904/DTD/svg10.dtd">
<svg version="1.0" xmlns="http://www.w3.org/2000/svg"
 width="1200.000000pt" height="1200.000000pt" viewBox="0 0 1200.000000 1200.000000"
 preserveAspectRatio="xMidYMid meet">
<metadata>
Created by potrace 1.14, written by Peter Selinger 2001-2017
</metadata>
<g transform="translate(0.000000,1200.000000) scale(0.100000,-0.100000)"
fill="#000000" stroke="none">
<path d="M5710 10239 c-215 -14 -509 -59 -720 -110 -1227 -301 -2260 -1136
-2814 -2274 -406 -833 -525 -1795 -336 -2726 104 -512 324 -1037 622 -1483
621 -929 1595 -1589 2667 -1806 824 -167 1667 -95 2431 207 990 391 1798 1140
2264 2098 467 958 552 2083 235 3117 -196 642 -568 1255 -1055 1742 -872 872
-2051 1314 -3294 1235z m-205 -4271 c352 -880 640 -1606 640 -1612 0 -19 -307
-20 -371 -1 -81 23 -75 13 -234 425 -50 129 -110 281 -133 338 l-42 103 -725
0 -724 -1 -143 -367 c-79 -203 -146 -378 -149 -390 -11 -42 -76 -104 -119
-113 -64 -15 -365 -13 -365 3 0 6 288 733 641 1615 l641 1602 222 0 221 0 640
-1602z m3230 1502 c-1 -151 28 -100 -385 -680 -459 -645 -948 -1332 -1180
-1660 -123 -173 -240 -338 -261 -366 -21 -29 -35 -54 -32 -58 4 -3 415 -6 914
-6 818 0 907 -2 913 -16 3 -9 6 -87 6 -175 0 -156 0 -159 -22 -164 -13 -3
-556 -4 -1208 -3 l-1185 3 -3 105 c-2 99 -1 110 25 160 16 30 174 260 352 510
510 715 817 1147 1086 1525 137 193 282 397 323 454 43 60 70 107 65 112 -5 5
-392 10 -888 11 l-880 3 -3 160 c-1 87 0 165 2 172 4 11 227 13 1183 11 l1178
-3 0 -95z"/>
<path d="M4638 7130 c-3 -8 -28 -82 -56 -165 -27 -82 -129 -355 -226 -605
-297 -765 -307 -792 -302 -806 4 -12 105 -14 580 -14 316 0 581 3 589 6 19 7
17 12 -63 219 -91 235 -175 453 -230 595 -26 69 -81 208 -120 310 -40 102 -94
250 -120 330 -26 80 -50 138 -52 130z"/>
</g>
</svg>
